<?xml version="1.0" encoding="UTF-8"?>
<svg version="1.1" xmlns="http://www.w3.org/2000/svg" width="626" height="626">
<path d="M0 0 C206.58 0 413.16 0 626 0 C626 206.58 626 413.16 626 626 C419.42 626 212.84 626 0 626 C0 419.42 0 212.84 0 0 Z " fill="#FEFEFE" transform="translate(0,0)"/>
<path d="M0 0 C0.87011719 0.00451172 1.74023438 0.00902344 2.63671875 0.01367188 C4.75784293 0.0253264 6.8789311 0.04325643 9 0.0625 C9 1.0525 9 2.0425 9 3.0625 C7.98421875 3.22105469 6.9684375 3.37960938 5.921875 3.54296875 C-2.95081953 5.01092553 -10.89202151 7.01405657 -19 11.0625 C-20.45986328 11.78373047 -20.45986328 11.78373047 -21.94921875 12.51953125 C-48.82446666 26.95838993 -61.71317003 55.82876368 -74.375 82.0625 C-75.40056429 84.17426233 -76.42669199 86.28575114 -77.45336914 88.39697266 C-80.31192573 94.2808243 -83.15845814 100.17041553 -86 106.0625 C-86.34411926 106.77563354 -86.68823853 107.48876709 -87.04278564 108.22351074 C-89.74688941 113.82851048 -92.43899306 119.43913052 -95.12109375 125.0546875 C-98.71568744 132.57264086 -102.36049367 140.06622238 -106 147.5625 C-112.21921825 160.37507975 -118.40344805 173.20391315 -124.55566406 186.04882812 C-126.56533441 190.24209567 -128.57952582 194.43318596 -130.59375 198.62426758 C-132.10364981 201.76804653 -133.61055396 204.91324843 -135.1171875 208.05859375 C-136.96361162 211.91138308 -138.82304208 215.75736648 -140.6953125 219.59765625 C-146.03374549 230.59672113 -150.84327832 241.70691756 -155.24609375 253.11328125 C-156.14500614 255.43741225 -157.06810988 257.7514125 -158 260.0625 C-161.76580477 258.80723174 -162.23826266 257.16400002 -163.95585632 253.74279785 C-164.32104874 252.98978394 -164.68624115 252.23677002 -165.0625 251.4609375 C-165.45013016 250.68133667 -165.83776031 249.90173584 -166.23713684 249.09851074 C-167.50124803 246.54956549 -168.75075242 243.99375834 -170 241.4375 C-170.86865263 239.6781865 -171.73803991 237.91923554 -172.6081543 236.16064453 C-177.50715025 226.23920792 -182.33668594 216.28508982 -187.06835938 206.28271484 C-190.89271423 198.21580868 -194.89368731 190.23989548 -198.90411377 182.26452637 C-203.38621329 173.34657531 -207.74939178 164.38065524 -212.02734375 155.36328125 C-215.54380504 147.96837001 -219.19060743 140.64481026 -222.87573242 133.33276367 C-226.17620076 126.76407531 -229.35456952 120.14407916 -232.5 113.5 C-236.16400331 105.81056918 -239.88091375 98.15108751 -243.75 90.5625 C-244.17345703 89.70841553 -244.59691406 88.85433105 -245.03320312 87.97436523 C-248.84423536 80.60632049 -253.90978142 73.86296028 -262 71.0625 C-265.66090336 70.55037917 -269.30929295 70.25294574 -273 70.0625 C-273 68.7425 -273 67.4225 -273 66.0625 C-261.44769198 65.99306302 -249.89543341 65.93972079 -238.3429594 65.90706348 C-232.97897165 65.89139151 -227.61512642 65.87012525 -222.2512207 65.83618164 C-217.07707628 65.80364288 -211.90306916 65.78565853 -206.72883034 65.77786827 C-204.75240733 65.7723149 -202.77599204 65.76147083 -200.7996273 65.74530983 C-198.03641759 65.72360844 -195.27377894 65.72053001 -192.51049805 65.72192383 C-191.68906815 65.711138 -190.86763824 65.70035217 -190.02131653 65.6892395 C-184.38991065 65.72008197 -184.38991065 65.72008197 -182.26627827 67.58504772 C-181.63947052 68.3163866 -181.63947052 68.3163866 -181 69.0625 C-181.59167969 69.16046875 -182.18335938 69.2584375 -182.79296875 69.359375 C-189.77856751 70.59953726 -189.77856751 70.59953726 -195 75.0625 C-196.33404614 83.50566799 -193.86204231 90.00860476 -190.25 97.5 C-189.2377555 99.6944703 -188.22741147 101.889818 -187.21875 104.0859375 C-186.42597656 105.79088379 -186.42597656 105.79088379 -185.6171875 107.53027344 C-182.87856127 113.51192264 -180.32108517 119.56991699 -177.75 125.625 C-174.33037824 133.63653005 -170.89023025 141.63685411 -167.36791992 149.60375977 C-165.65136484 153.50817386 -164.02788914 157.44225606 -162.43505859 161.39794922 C-158.75068002 170.53776467 -154.53284212 179.31470339 -150 188.0625 C-148.35 188.0625 -146.7 188.0625 -145 188.0625 C-134.25894288 167.16449159 -124.68620665 145.70471235 -115.18063354 124.22476196 C-108.44418854 109.00487407 -101.57938457 93.84632756 -94.60993958 78.73171997 C-92.84203661 74.89759349 -91.08884838 71.05729591 -89.34765625 67.2109375 C-82.04708649 51.21706913 -73.58134404 37.43379776 -61 25.0625 C-60.16597656 24.22976562 -59.33195313 23.39703125 -58.47265625 22.5390625 C-42.08084434 6.97082623 -22.33273537 -0.2229843 0 0 Z " fill="#010101" transform="translate(470,182.9375)"/>
<path d="M0 0 C0.66 0 1.32 0 2 0 C9.91386865 16.25977916 16.64066043 32.67368176 17 51 C17.02964844 51.66902344 17.05929687 52.33804688 17.08984375 53.02734375 C18.41412201 83.16791691 8.5645811 111.11867661 -11 134 C-11.47695313 134.60972656 -11.95390625 135.21945312 -12.4453125 135.84765625 C-27.92641868 155.26538657 -54.21247774 167.1211334 -78 172 C-79.32 172 -80.64 172 -82 172 C-81.36079057 169.99105606 -80.68960962 167.99220557 -80 166 C-79.78601563 165.31164062 -79.57203125 164.62328125 -79.3515625 163.9140625 C-77.24455953 160.93015656 -74.75011066 160.88747224 -71.25 160.125 C-43.59145252 153.46357051 -21.49994139 135.9538359 -6.76757812 111.91772461 C6.64604357 89.11006219 11.57748644 60.6092122 5.375 34.6875 C3.59697394 27.9464404 1.00326343 21.47599665 -1.73046875 15.07421875 C-4.30499861 8.83989567 -4.30499861 8.83989567 -3.22265625 5.859375 C-2.83980469 5.16328125 -2.45695312 4.4671875 -2.0625 3.75 C-1.68222656 3.04359375 -1.30195313 2.3371875 -0.91015625 1.609375 C-0.60980469 1.07828125 -0.30945313 0.5471875 0 0 Z " fill="#080808" transform="translate(410,253)"/>
<path d="M0 0 C1.98 1.65 3.96 3.3 6 5 C5.07342452 9.32401892 4.10317001 13.62864764 3.01171875 17.9140625 C2.7472998 18.95336914 2.7472998 18.95336914 2.47753906 20.01367188 C2.12462908 21.39340312 1.76863933 22.77235125 1.40917969 24.15039062 C-5.39150273 50.7503623 0.20379933 78.56231142 13.83374023 102.0065918 C17.35883475 107.81617899 21.45026466 112.96782943 26 118 C26.82113281 118.91523438 27.64226562 119.83046875 28.48828125 120.7734375 C40.61864207 133.60466361 55.86605763 142.42481038 72.625 147.8125 C76.78447797 149.37230424 78.13604981 151.31077365 80.125 155.25 C80.78292231 156.81993875 81.41974796 158.39972596 82 160 C57.90025685 155.58737097 38.36852845 144.09905904 21 127 C20.22011719 126.24460937 19.44023437 125.48921875 18.63671875 124.7109375 C-2.72041012 102.63305295 -11.19331435 72.81309226 -10.76953125 42.80639648 C-10.38365184 27.8402863 -8.0081122 12.88261528 0 0 Z " fill="#080808" transform="translate(209,264)"/>
<path d="M0 0 C0.81339844 0.6290625 1.62679687 1.258125 2.46484375 1.90625 C1.14484375 4.54625 -0.17515625 7.18625 -1.53515625 9.90625 C-4.61366972 8.36699327 -7.3547404 6.74009944 -10.20288086 4.83496094 C-34.08330848 -11.06995071 -62.40101058 -18.41728551 -90.94604492 -12.96435547 C-111.66289598 -8.32710686 -131.83441029 1.61833661 -146.01171875 17.71875 C-149.17568369 20.46150598 -150.73110903 20.44493391 -154.84765625 20.21875 C-155.91628906 20.17363281 -156.98492187 20.12851563 -158.0859375 20.08203125 C-159.29830078 19.99501953 -159.29830078 19.99501953 -160.53515625 19.90625 C-148.20092473 -1.39833171 -122.45606377 -14.14168775 -99.68164062 -20.49169922 C-97.83807747 -21.00878597 -96.00558807 -21.56507043 -94.17578125 -22.12890625 C-62.72555477 -30.88771285 -25.29001021 -19.08178103 0 0 Z " fill="#060606" transform="translate(383.53515625,221.09375)"/>
<path d="M0 0 C11.55230802 -0.06943698 23.10456659 -0.12277921 34.6570406 -0.15543652 C40.02102835 -0.17110849 45.38487358 -0.19237475 50.7487793 -0.22631836 C55.92292372 -0.25885712 61.09693084 -0.27684147 66.27116966 -0.28463173 C68.24759267 -0.2901851 70.22400796 -0.30102917 72.2003727 -0.31719017 C74.96358241 -0.33889156 77.72622106 -0.34196999 80.48950195 -0.34057617 C81.31093185 -0.351362 82.13236176 -0.36214783 82.97868347 -0.3732605 C88.61008935 -0.34241803 88.61008935 -0.34241803 90.73372173 1.52254772 C91.15159356 2.01010697 91.56946539 2.49766623 92 3 C90.58622218 3.36552803 89.16879424 3.71695495 87.75 4.0625 C86.96109375 4.25972656 86.1721875 4.45695313 85.359375 4.66015625 C83 5 83 5 81.24237061 4.52833557 C78.36908338 3.85134674 75.71533609 3.88056933 72.76269531 3.88647461 C70.87118744 3.88658791 70.87118744 3.88658791 68.94146729 3.88670349 C67.57035279 3.89180972 66.19923869 3.8970257 64.828125 3.90234375 C63.42136689 3.90420972 62.01460812 3.90563278 60.60784912 3.90663147 C56.91219273 3.91044256 53.21657587 3.9202608 49.52093506 3.93133545 C45.74703506 3.94157986 41.97312865 3.94613558 38.19921875 3.95117188 C30.79946118 3.96188436 23.39973614 3.97894384 16 4 C15.67 4.99 15.34 5.98 15 7 C14.18789062 6.52433594 14.18789062 6.52433594 13.359375 6.0390625 C10.5842851 4.81692026 8.26791902 4.59056564 5.25 4.375 C4.26515625 4.30023438 3.2803125 4.22546875 2.265625 4.1484375 C1.51796875 4.09945312 0.7703125 4.05046875 0 4 C0 2.68 0 1.36 0 0 Z " fill="#313131" transform="translate(197,249)"/>
<path d="M0 0 C0.82242188 0.05220703 1.64484375 0.10441406 2.4921875 0.15820312 C4.49522899 0.28630462 6.49768871 0.42345061 8.5 0.5625 C8.5 0.8925 8.5 1.2225 8.5 1.5625 C7.27023437 1.65337891 7.27023437 1.65337891 6.015625 1.74609375 C4.93796875 1.82988281 3.8603125 1.91367188 2.75 2 C1.14898437 2.12181641 1.14898437 2.12181641 -0.484375 2.24609375 C-2.94580884 2.504353 -5.11632356 2.95621708 -7.5 3.5625 C-8.49 3.52125 -9.48 3.48 -10.5 3.4375 C-15.02864767 3.34947013 -19.19488639 4.62799472 -23.53515625 5.80859375 C-26.51050018 6.56517001 -29.46662052 7.09825322 -32.5 7.5625 C-32.83 6.9025 -33.16 6.2425 -33.5 5.5625 C-31.00261142 4.74115011 -28.50255195 3.93034252 -26 3.125 C-25.30390625 2.89490234 -24.6078125 2.66480469 -23.890625 2.42773438 C-15.77534407 -0.16464703 -8.43274617 -0.59743397 0 0 Z " fill="#1B1B1B" transform="translate(469.5,183.4375)"/>
<path d="M0 0 C0.66 0.66 1.32 1.32 2 2 C-1.5885421 3.1961807 -2.08046718 2.75736692 -5.4375 1.3125 C-15.78484198 -2.6821843 -27.08541832 -4.23728616 -38 -6 C-38 -6.33 -38 -6.66 -38 -7 C-25.5292904 -9.3462933 -11.57882606 -4.70292801 0 0 Z " fill="#101010" transform="translate(358,206)"/>
<path d="M0 0 C5.28 0 10.56 0 16 0 C16 0.99 16 1.98 16 3 C14.98421875 3.15855469 13.9684375 3.31710938 12.921875 3.48046875 C4.01235853 4.95869037 -3.76226841 7.17759162 -12 11 C-13.66268329 11.6765401 -15.32819034 12.34633748 -17 13 C-17 12.01 -17 11.02 -17 10 C-14.9627797 9.01161567 -12.92000393 8.03467748 -10.875 7.0625 C-9.73804688 6.51722656 -8.60109375 5.97195312 -7.4296875 5.41015625 C-4.20150915 4.08285285 -1.43919908 3.46278175 2 3 C2.99 2.67 3.98 2.34 5 2 C2.525 1.505 2.525 1.505 0 1 C0 0.67 0 0.34 0 0 Z " fill="#030303" transform="translate(463,183)"/>
<path d="M0 0 C0.66 0.66 1.32 1.32 2 2 C-0.97 4.97 -3.94 7.94 -7 11 C-4.69 11 -2.38 11 0 11 C0 11.99 0 12.98 0 14 C-1 15 -1 15 -3.72265625 15.09765625 C-5.37587891 15.08025391 -5.37587891 15.08025391 -7.0625 15.0625 C-8.16722656 15.05347656 -9.27195313 15.04445312 -10.41015625 15.03515625 C-11.69212891 15.01775391 -11.69212891 15.01775391 -13 15 C-9.54122788 9.13512553 -4.88678132 4.69882819 0 0 Z " fill="#1F1F1F" transform="translate(236,226)"/>
<path d="M0 0 C0.639375 0.639375 1.27875 1.27875 1.9375 1.9375 C2.38609375 2.38480469 2.8346875 2.83210938 3.296875 3.29296875 C4.62479431 4.62393375 5.9464563 5.96114269 7.265625 7.30078125 C8.06484375 8.10902344 8.8640625 8.91726563 9.6875 9.75 C10.83798828 10.91789062 10.83798828 10.91789062 12.01171875 12.109375 C13.8610699 14.05230615 13.8610699 14.05230615 16 15 C16 15.66 16 16.32 16 17 C17.32 17.33 18.64 17.66 20 18 C20 18.66 20 19.32 20 20 C21.65 20.66 23.3 21.32 25 22 C24.01 22.66 23.02 23.32 22 24 C0.84293637 6.45511796 0.84293637 6.45511796 0 0 Z " fill="#141414" transform="translate(225,382)"/>
<path d="M0 0 C4.72084346 1.79751554 9.25206511 3.96137372 13.8125 6.125 C14.60076172 6.49753906 15.38902344 6.87007813 16.20117188 7.25390625 C18.13473705 8.16795524 20.06745388 9.08379842 22 10 C21.67 10.99 21.34 11.98 21 13 C18.26671936 11.75842158 15.53859971 10.50717108 12.8125 9.25 C12.04357422 8.90195312 11.27464844 8.55390625 10.48242188 8.1953125 C6.19213277 6.20668064 2.56794295 4.17468271 -1 1 C-0.67 0.67 -0.34 0.34 0 0 Z " fill="#161616" transform="translate(251,406)"/>
<path d="M0 0 C4.1775009 2.08875045 5.74819971 8.30612846 7.6875 12.375 C8.21150391 13.44234375 8.73550781 14.5096875 9.27539062 15.609375 C9.76587891 16.63289063 10.25636719 17.65640625 10.76171875 18.7109375 C11.21506592 19.65243652 11.66841309 20.59393555 12.13549805 21.56396484 C13 24 13 24 12 27 C8.69942169 22.81037103 6.5826693 18.30102789 4.3125 13.5 C3.89677734 12.64535156 3.48105469 11.79070312 3.05273438 10.91015625 C2.46395508 9.67072266 2.46395508 9.67072266 1.86328125 8.40625 C1.50532471 7.65666016 1.14736816 6.90707031 0.77856445 6.13476562 C0 4 0 4 0 0 Z " fill="#121212" transform="translate(281,381)"/>
<path d="M0 0 C0.99 0.33 1.98 0.66 3 1 C2.3709375 1.53367188 1.741875 2.06734375 1.09375 2.6171875 C-4.34461201 7.35118335 -9.0292527 12.20223868 -13.40625 17.93359375 C-15 20 -15 20 -17 22 C-17.33 21.34 -17.66 20.68 -18 20 C-5.18116103 3.16796828 -5.18116103 3.16796828 0 0 Z " fill="#111111" transform="translate(434,202)"/>
<path d="M0 0 C-1 3 -1 3 -3.06640625 4.16796875 C-3.89011719 4.50441406 -4.71382813 4.84085938 -5.5625 5.1875 C-6.38878906 5.53167969 -7.21507812 5.87585938 -8.06640625 6.23046875 C-8.70449219 6.48441406 -9.34257812 6.73835937 -10 7 C-10.33 6.34 -10.66 5.68 -11 5 C-9.54462432 4.16151196 -8.08559627 3.32936066 -6.625 2.5 C-5.81289063 2.0359375 -5.00078125 1.571875 -4.1640625 1.09375 C-2 0 -2 0 0 0 Z M-11 6 C-11 6.99 -11 7.98 -11 9 C-13.1875 10.60546875 -13.1875 10.60546875 -16 12.1875 C-16.928125 12.71730469 -17.85625 13.24710938 -18.8125 13.79296875 C-19.534375 14.19128906 -20.25625 14.58960938 -21 15 C-21 14.01 -21 13.02 -21 12 C-19.3203125 10.39453125 -19.3203125 10.39453125 -17.125 8.8125 C-16.04605469 8.01779297 -16.04605469 8.01779297 -14.9453125 7.20703125 C-13 6 -13 6 -11 6 Z " fill="#141414" transform="translate(436,190)"/>
<path d="M0 0 C0.88207936 2.45320685 1.10244103 3.68400855 0.28735352 6.19824219 C-0.09493408 6.97329102 -0.47722168 7.74833984 -0.87109375 8.546875 C-1.28037109 9.39121094 -1.68964844 10.23554688 -2.11132812 11.10546875 C-2.54896484 11.97816406 -2.98660156 12.85085938 -3.4375 13.75 C-4.0881543 15.08224609 -4.0881543 15.08224609 -4.75195312 16.44140625 C-5.82419132 18.63301399 -6.90710233 20.8186409 -8 23 C-8.66 22.67 -9.32 22.34 -10 22 C-8.4719611 16.90117545 -6.28963144 12.34334341 -3.875 7.625 C-3.50246094 6.88894531 -3.12992187 6.15289062 -2.74609375 5.39453125 C-1.8343878 3.59449642 -0.91770068 1.79698598 0 0 Z " fill="#0F0F0F" transform="translate(333,389)"/>
<path d="M0 0 C0.33 0 0.66 0 1 0 C1.08636719 0.59425781 1.17273438 1.18851562 1.26171875 1.80078125 C2.31322296 8.00369143 4.24298771 13.13538972 7.07421875 18.75 C7.37972656 19.4925 7.68523437 20.235 8 21 C7.67 21.66 7.34 22.32 7 23 C2.11282298 19.74188198 0.62186466 14.51164796 -1 9 C-1.11456381 5.72347492 -0.70045513 3.23286983 0 0 Z " fill="#191919" transform="translate(273,261)"/>
<path d="M0 0 C0.99 0.33 1.98 0.66 3 1 C0.03 6.94 -2.94 12.88 -6 19 C-6.66 18.67 -7.32 18.34 -8 18 C-6.65150163 13.64029169 -4.95092154 9.68658562 -2.875 5.625 C-2.33617187 4.56539063 -1.79734375 3.50578125 -1.2421875 2.4140625 C-0.83226562 1.61742187 -0.42234375 0.82078125 0 0 Z " fill="#161616" transform="translate(395,260)"/>
<path d="M0 0 C3.0507305 3.6975626 5.10445631 7.80589458 7.25 12.0625 C7.62640625 12.78244141 8.0028125 13.50238281 8.390625 14.24414062 C9.34038605 16.12445799 10.17845147 18.06023263 11 20 C10.67 20.99 10.34 21.98 10 23 C7.02801464 20.02801464 5.64997294 16.4007375 3.875 12.625 C3.50246094 11.85671875 3.12992187 11.0884375 2.74609375 10.296875 C2.39417969 9.55179687 2.04226563 8.80671875 1.6796875 8.0390625 C1.35726074 7.36053223 1.03483398 6.68200195 0.70263672 5.98291016 C0 4 0 4 0 0 Z " fill="#111111" transform="translate(257,332)"/>
<path d="M0 0 C0.93134766 0.00322266 1.86269531 0.00644531 2.82226562 0.00976562 C4.26182617 0.02233398 4.26182617 0.02233398 5.73046875 0.03515625 C6.70951172 0.03966797 7.68855469 0.04417969 8.69726562 0.04882812 C11.10422986 0.06056941 13.51106732 0.07699206 15.91796875 0.09765625 C15.91796875 0.42765625 15.91796875 0.75765625 15.91796875 1.09765625 C13.27796875 1.42765625 10.63796875 1.75765625 7.91796875 2.09765625 C7.91796875 2.42765625 7.91796875 2.75765625 7.91796875 3.09765625 C5.48017245 3.1516296 3.0435719 3.19131241 0.60546875 3.22265625 C-0.4299707 3.24779297 -0.4299707 3.24779297 -1.48632812 3.2734375 C-5.25338521 3.30983419 -6.86634829 3.24144489 -10.08203125 1.09765625 C-6.65629188 0.32237146 -3.5096388 -0.02153153 0 0 Z " fill="#3E3E3E" transform="translate(304.08203125,196.90234375)"/>
<path d="M0 0 C0.66 0.33 1.32 0.66 2 1 C0.70024676 7.71539173 -1.29928888 13.72019113 -4 20 C-4.66 19.01 -5.32 18.02 -6 17 C-5.13671875 14.00390625 -5.13671875 14.00390625 -3.6875 10.5625 C-1.5052624 5.39022126 -1.5052624 5.39022126 0 0 Z " fill="#202020" transform="translate(415,336)"/>
<path d="M0 0 C2.54692521 2.54692521 3.65768848 5.17802035 5.1875 8.4375 C5.73792969 9.59121094 6.28835937 10.74492187 6.85546875 11.93359375 C8 15 8 15 7 18 C3.20746275 13.4489553 0.17544665 8.45625312 -0.25 2.5 C-0.1675 1.675 -0.085 0.85 0 0 Z " fill="#191919" transform="translate(240,296)"/>
<path d="M0 0 C-0.66 0 -1.32 0 -2 0 C-2 0.66 -2 1.32 -2 2 C-8.93 4.97 -8.93 4.97 -16 8 C-16 7.01 -16 6.02 -16 5 C-13.90163996 3.96728358 -11.79609109 2.94916283 -9.6875 1.9375 C-7.92986328 1.08478516 -7.92986328 1.08478516 -6.13671875 0.21484375 C-3 -1 -3 -1 0 0 Z " fill="#171717" transform="translate(462,188)"/>
<path d="M0 0 C0.66 0.66 1.32 1.32 2 2 C-1.63 5.63 -5.26 9.26 -9 13 C-9.66 12.34 -10.32 11.68 -11 11 C-7.37 7.37 -3.74 3.74 0 0 Z " fill="#151515" transform="translate(236,226)"/>
<path d="M0 0 C0.33 0 0.66 0 1 0 C1.69821417 2.10063576 2.38324472 4.20565737 3.0625 6.3125 C3.44535156 7.48425781 3.82820312 8.65601563 4.22265625 9.86328125 C5 13 5 13 4 16 C1.13479688 13.13479688 -0.01699865 9.9030936 -1 6 C-0.6875 2.5 -0.6875 2.5 0 0 Z " fill="#1E1E1E" transform="translate(210,337)"/>
<path d="M0 0 C2.52349243 3.12432397 4.27256146 6.38060496 6 10 C6.66 10 7.32 10 8 10 C8.33 10.99 8.66 11.98 9 13 C8.67 13.66 8.34 14.32 8 15 C5 14 5 14 3.61328125 11.85546875 C3.18402344 10.97503906 2.75476563 10.09460938 2.3125 9.1875 C1.87550781 8.31480469 1.43851562 7.44210937 0.98828125 6.54296875 C0 4 0 4 0 0 Z " fill="#0E0E0E" transform="translate(304,428)"/>
<path d="M0 0 C0.99 0.33 1.98 0.66 3 1 C4.16796875 3.50390625 4.16796875 3.50390625 5.1875 6.5625 C5.53167969 7.57441406 5.87585938 8.58632813 6.23046875 9.62890625 C6.48441406 10.41136719 6.73835938 11.19382812 7 12 C6.34 12.66 5.68 13.32 5 14 C4.15973604 12.23244474 3.32801278 10.46082737 2.5 8.6875 C2.0359375 7.70136719 1.571875 6.71523438 1.09375 5.69921875 C0 3 0 3 0 0 Z " fill="#1B1B1B" transform="translate(304,341)"/>
<path d="M0 0 C1.44977894 2.34112451 2.04314411 3.5796929 1.7578125 6.359375 C1.54898438 7.14828125 1.34015625 7.9371875 1.125 8.75 C0.92132813 9.54921875 0.71765625 10.3484375 0.5078125 11.171875 C0.34023437 11.77515625 0.17265625 12.3784375 0 13 C-0.66 13 -1.32 13 -2 13 C-2 14.98 -2 16.96 -2 19 C-2.33 19 -2.66 19 -3 19 C-3.45510807 12.32508169 -1.7672426 6.40625443 0 0 Z " fill="#121212" transform="translate(209,281)"/>
<path d="M0 0 C6.24723226 -0.82200425 10.71317837 2.07448606 16 5 C15.01 5.66 14.02 6.32 13 7 C9.86328125 5.8828125 9.86328125 5.8828125 6.3125 4.125 C5.13300781 3.55007812 3.95351563 2.97515625 2.73828125 2.3828125 C1.83464844 1.92648438 0.93101562 1.47015625 0 1 C0 0.67 0 0.34 0 0 Z " fill="#1F1F1F" transform="translate(351,213)"/>
<path d="M0 0 C0.99 0.33 1.98 0.66 3 1 C2.2575 1.53625 1.515 2.0725 0.75 2.625 C-2.13870016 4.90244691 -2.13870016 4.90244691 -4.0625 8.125 C-5.94841287 10.92345135 -6.89451008 11.89089646 -10 13 C-9.48223379 8.89552608 -7.35372556 7.04300477 -4.4375 4.25 C-3.61121094 3.45078125 -2.78492188 2.6515625 -1.93359375 1.828125 C-1.29550781 1.22484375 -0.65742188 0.6215625 0 0 Z " fill="#141414" transform="translate(411,206)"/>
<path d="M0 0 C0.66 0.33 1.32 0.66 2 1 C2 1.66 2 2.32 2 3 C3.98 2.67 5.96 2.34 8 2 C8 2.66 8 3.32 8 4 C4.38026598 5.31626692 1.90432869 6 -2 6 C-1.34 4.02 -0.68 2.04 0 0 Z " fill="#292929" transform="translate(330,419)"/>
<path d="M0 0 C0.33 0.99 0.66 1.98 1 3 C-0.5725165 3.89429374 -2.15853741 4.76487427 -3.75 5.625 C-4.63171875 6.11226563 -5.5134375 6.59953125 -6.421875 7.1015625 C-9 8 -9 8 -11.328125 7.1484375 C-11.87984375 6.76945312 -12.4315625 6.39046875 -13 6 C-11.96939453 5.60167969 -11.96939453 5.60167969 -10.91796875 5.1953125 C-10.01691406 4.84210938 -9.11585938 4.48890625 -8.1875 4.125 C-7.29417969 3.77695312 -6.40085937 3.42890625 -5.48046875 3.0703125 C-2.82288409 2.01167845 -2.82288409 2.01167845 0 0 Z " fill="#202020" transform="translate(364,403)"/>
<path d="M0 0 C3.21524305 1.40844718 5.32183868 3.10344786 7.75 5.625 C8.67039063 6.57246094 8.67039063 6.57246094 9.609375 7.5390625 C10.29773438 8.26222656 10.29773438 8.26222656 11 9 C10.34 9.66 9.68 10.32 9 11 C7.49403892 9.54782324 5.99537896 8.08807139 4.5 6.625 C3.6646875 5.81289063 2.829375 5.00078125 1.96875 4.1640625 C0 2 0 2 0 0 Z " fill="#1F1F1F" transform="translate(231,380)"/>
<path d="M0 0 C0.66 0.33 1.32 0.66 2 1 C0.125 6.75 0.125 6.75 -1 9 C-1.66 9 -2.32 9 -3 9 C-2.44271087 5.65626525 -1.64826111 2.96687001 0 0 Z M-4 9 C-3.34 9.33 -2.68 9.66 -2 10 C-2.66 11.32 -3.32 12.64 -4 14 C-4.66 13.67 -5.32 13.34 -6 13 C-5.34 11.68 -4.68 10.36 -4 9 Z " fill="#1A1A1A" transform="translate(350,318)"/>
<path d="M0 0 C3.17218843 3.62535821 4.42902597 7.51150278 6 12 C5.34 12.66 4.68 13.32 4 14 C3.13395466 12.23494565 2.28251358 10.46271926 1.4375 8.6875 C0.72400391 7.20830078 0.72400391 7.20830078 -0.00390625 5.69921875 C-1 3 -1 3 0 0 Z " fill="#171717" transform="translate(286,297)"/>
<path d="M0 0 C5.19209404 -0.21192221 9.126739 0.4087311 14 2 C10.46145836 4.27477677 8.29052627 3.99082706 4.25 3.125 C3.26515625 2.92132813 2.2803125 2.71765625 1.265625 2.5078125 C0.14414062 2.25644531 0.14414062 2.25644531 -1 2 C-0.67 1.34 -0.34 0.68 0 0 Z " fill="#151515" transform="translate(326,205)"/>
<path d="M0 0 C0.75 1.6875 0.75 1.6875 1 4 C-0.8125 6.75 -0.8125 6.75 -3 9 C-3.66 9 -4.32 9 -5 9 C-3.7508258 5.54074837 -2.32472205 2.85306797 0 0 Z M-6 9 C-5.67 10.32 -5.34 11.64 -5 13 C-5.99 13 -6.98 13 -8 13 C-7.34 11.68 -6.68 10.36 -6 9 Z " fill="#202020" transform="translate(398,220)"/>
<path d="M0 0 C0.66 0.33 1.32 0.66 2 1 C0.40629329 2.36646148 -1.20032982 3.71787166 -2.8125 5.0625 C-4.15248047 6.19365234 -4.15248047 6.19365234 -5.51953125 7.34765625 C-6.74736328 8.16556641 -6.74736328 8.16556641 -8 9 C-8.99 8.67 -9.98 8.34 -11 8 C-7.45960866 5.0843836 -3.8373228 2.49872182 0 0 Z " fill="#181818" transform="translate(377,395)"/>
<path d="M0 0 C0.33 0 0.66 0 1 0 C1.56561146 5.65611463 -0.28608722 9.22642128 -3 14 C-3.66 13.67 -4.32 13.34 -5 13 C-3.58192622 8.52761347 -1.88695626 4.28853694 0 0 Z " fill="#181818" transform="translate(357,302)"/>
<path d="M0 0 C2.98619537 2.55959603 4.48551562 5.3940848 6 9 C6.1875 11.875 6.1875 11.875 6 14 C2.44188906 9.59471979 0 5.75487737 0 0 Z " fill="#0C0C0C" transform="translate(234,285)"/>
<path d="M0 0 C0.33 0 0.66 0 1 0 C0.50269348 4.97306516 -0.55302334 8.63799813 -3 13 C-3.66 12.67 -4.32 12.34 -5 12 C-3.68938409 7.76570244 -2.05643741 3.92592596 0 0 Z " fill="#181818" transform="translate(341,372)"/>
<path d="M0 0 C0 3.44360632 -0.79591532 4.74795392 -2.5 7.6875 C-2.9640625 8.49574219 -3.428125 9.30398437 -3.90625 10.13671875 C-4.44765625 11.05904297 -4.44765625 11.05904297 -5 12 C-5.66 11.34 -6.32 10.68 -7 10 C-6.21516341 8.51719804 -5.42190666 7.0388502 -4.625 5.5625 C-4.18414062 4.73878906 -3.74328125 3.91507813 -3.2890625 3.06640625 C-2 1 -2 1 0 0 Z " fill="#181818" transform="translate(390,235)"/>
<path d="M0 0 C0.66 0.66 1.32 1.32 2 2 C-0.97 4.64 -3.94 7.28 -7 10 C-7.66 9.34 -8.32 8.68 -9 8 C-6.03 5.36 -3.06 2.72 0 0 Z " fill="#181818" transform="translate(246,227)"/>
<path d="M0 0 C0.99 0 1.98 0 3 0 C3.69965443 1.26418246 4.38434763 2.53665402 5.0625 3.8125 C5.63677734 4.87404297 5.63677734 4.87404297 6.22265625 5.95703125 C7 8 7 8 6 11 C3.13546142 7.58983503 1.65296434 4.09305456 0 0 Z " fill="#1A1A1A" transform="translate(293,409)"/>
<path d="M0 0 C0.33 0 0.66 0 1 0 C1.0272415 1.41655793 1.04650467 2.83327045 1.0625 4.25 C1.07410156 5.03890625 1.08570313 5.8278125 1.09765625 6.640625 C1.00385306 8.90691002 0.63241063 10.8288895 0 13 C-0.66 13 -1.32 13 -2 13 C-2.33 13.66 -2.66 14.32 -3 15 C-2.68917128 13.24970238 -2.37626821 11.49977306 -2.0625 9.75 C-1.88847656 8.77546875 -1.71445312 7.8009375 -1.53515625 6.796875 C-1.09620271 4.50278205 -0.59651408 2.25708029 0 0 Z " fill="#111111" transform="translate(423,330)"/>
<path d="M0 0 C0.99 0.33 1.98 0.66 3 1 C1.35 4.3 -0.3 7.6 -2 11 C-2.66 10.67 -3.32 10.34 -4 10 C-2.8905928 6.51329166 -1.73662334 3.22515763 0 0 Z " fill="#1B1B1B" transform="translate(365,322)"/>
<path d="M0 0 C2.02907167 3.3146667 2.12742133 5.4315979 1.625 9.25 C1.51414062 10.14203125 1.40328125 11.0340625 1.2890625 11.953125 C1.19367188 12.62859375 1.09828125 13.3040625 1 14 C0.67 14 0.34 14 0 14 C-0.19393875 11.85473901 -0.37998676 9.70876323 -0.5625 7.5625 C-0.71912109 5.77005859 -0.71912109 5.77005859 -0.87890625 3.94140625 C-0.91886719 2.97074219 -0.95882813 2.00007813 -1 1 C-0.67 0.67 -0.34 0.34 0 0 Z " fill="#1B1B1B" transform="translate(424,288)"/>
<path d="M0 0 C4.455 0.99 4.455 0.99 9 2 C9 2.99 9 3.98 9 5 C5.7 4.01 2.4 3.02 -1 2 C-0.67 1.34 -0.34 0.68 0 0 Z " fill="#272727" transform="translate(341,208)"/>
<path d="M0 0 C2.97 0.99 5.94 1.98 9 3 C8.67 3.99 8.34 4.98 8 6 C5.36 4.68 2.72 3.36 0 2 C0 1.34 0 0.68 0 0 Z " fill="#1C1C1C" transform="translate(264,413)"/>
<path d="M0 0 C2.79133871 0.78208351 5.44481903 1.61706907 8 3 C9 5.6875 9 5.6875 9 8 C8.76539063 7.36578125 8.53078125 6.7315625 8.2890625 6.078125 C7.17709092 3.81749261 7.17709092 3.81749261 4.8359375 3.171875 C3.61777344 2.96304687 3.61777344 2.96304687 2.375 2.75 C1.55773437 2.60046875 0.74046875 2.4509375 -0.1015625 2.296875 C-1.04128906 2.14992188 -1.04128906 2.14992188 -2 2 C-1.34 1.34 -0.68 0.68 0 0 Z " fill="#171717" transform="translate(278,411)"/>
<path d="M0 0 C3.33557632 2.9905167 5.15083921 5.93184627 7 10 C6.01 10 5.02 10 4 10 C1.09677182 6.35022743 0 4.74147821 0 0 Z " fill="#1D1D1D" transform="translate(217,371)"/>
<path d="M0 0 C0.66 0.33 1.32 0.66 2 1 C1.57742724 2.4835001 1.13643678 3.96176424 0.6875 5.4375 C0.44386719 6.26121094 0.20023437 7.08492188 -0.05078125 7.93359375 C-0.36402344 8.61550781 -0.67726563 9.29742187 -1 10 C-1.99 10.33 -2.98 10.66 -4 11 C-2.7874262 7.27566618 -1.49140021 3.62197194 0 0 Z " fill="#171717" transform="translate(343,333)"/>
<path d="M0 0 C3.63 1.32 7.26 2.64 11 4 C10.67 4.66 10.34 5.32 10 6 C8.5164999 5.57742724 7.03823576 5.13643678 5.5625 4.6875 C4.73878906 4.44386719 3.91507812 4.20023438 3.06640625 3.94921875 C2.04353516 3.47935547 2.04353516 3.47935547 1 3 C0.67 2.01 0.34 1.02 0 0 Z " fill="#161616" transform="translate(349,203)"/>
<path d="M0 0 C0.66 0.99 1.32 1.98 2 3 C0.68 5.64 -0.64 8.28 -2 11 C-2.66 10.67 -3.32 10.34 -4 10 C-2.8905928 6.51329166 -1.73662334 3.22515763 0 0 Z " fill="#191919" transform="translate(378,295)"/>
<path d="M0 0 C2.09782787 2.09782787 2.6509396 3.3799207 3.625 6.125 C4.01558594 7.21167969 4.01558594 7.21167969 4.4140625 8.3203125 C4.70410156 9.15175781 4.70410156 9.15175781 5 10 C4.34 10.66 3.68 11.32 3 12 C0.58314288 7.77050005 -0.34833144 4.87664009 0 0 Z " fill="#1B1B1B" transform="translate(414,259)"/>
<path d="M0 0 C0.66 0.66 1.32 1.32 2 2 C0.02 4.97 -1.96 7.94 -4 11 C-5 7 -5 7 -4.00390625 5.078125 C-3.52824219 4.47484375 -3.05257813 3.8715625 -2.5625 3.25 C-2.08941406 2.63640625 -1.61632812 2.0228125 -1.12890625 1.390625 C-0.75636719 0.93171875 -0.38382812 0.4728125 0 0 Z " fill="#1C1C1C" transform="translate(401,368)"/>
<path d="M0 0 C0.66 0 1.32 0 2 0 C0.34832443 3.5786304 -1.78286492 6.74820188 -4 10 C-4.66 9.34 -5.32 8.68 -6 8 C-5.04956626 6.66102417 -4.08940853 5.32894573 -3.125 4 C-2.59132813 3.2575 -2.05765625 2.515 -1.5078125 1.75 C-1.01023437 1.1725 -0.51265625 0.595 0 0 Z " fill="#1C1C1C" transform="translate(422,214)"/>
<path d="M0 0 C0.99 0 1.98 0 3 0 C2.01 2.97 1.02 5.94 0 9 C-0.66 8.67 -1.32 8.34 -2 8 C-1.34 5.36 -0.68 2.72 0 0 Z " fill="#151515" transform="translate(319,416)"/>
<path d="M0 0 C0.99 0.33 1.98 0.66 3 1 C2.21718695 2.33855056 1.42348123 3.67073644 0.625 5 C0.18414062 5.7425 -0.25671875 6.485 -0.7109375 7.25 C-1.34902344 8.11625 -1.34902344 8.11625 -2 9 C-2.66 9 -3.32 9 -4 9 C-2.80100302 5.9168649 -1.52299523 2.93720508 0 0 Z " fill="#141414" transform="translate(407,358)"/>
<path d="M0 0 C0.33 0 0.66 0 1 0 C1.66 3.96 2.32 7.92 3 12 C2.01 12.495 2.01 12.495 1 13 C-0.9078584 9.8250906 -1.1609041 7.89414789 -0.625 4.25 C-0.51414062 3.45078125 -0.40328125 2.6515625 -0.2890625 1.828125 C-0.19367188 1.22484375 -0.09828125 0.6215625 0 0 Z " fill="#2F2F2F" transform="translate(273,261)"/>
<path d="M0 0 C0.99 0.33 1.98 0.66 3 1 C1.68 3.64 0.36 6.28 -1 9 C-1.66 8.67 -2.32 8.34 -3 8 C-1.125 2.25 -1.125 2.25 0 0 Z " fill="#212121" transform="translate(395,260)"/>
<path d="M0 0 C1.32 0 2.64 0 4 0 C4 0.66 4 1.32 4 2 C6.475 2.99 6.475 2.99 9 4 C8.01 4.66 7.02 5.32 6 6 C3.97945196 4.35830472 1.97956942 2.69088222 0 1 C0 0.67 0 0.34 0 0 Z " fill="#1C1C1C" transform="translate(241,400)"/>
<path d="M0 0 C0.66 0.66 1.32 1.32 2 2 C1.67 2.66 1.34 3.32 1 4 C-2.0625 4.625 -2.0625 4.625 -5 5 C-5 4.01 -5 3.02 -5 2 C-3.35 1.34 -1.7 0.68 0 0 Z " fill="#1E1E1E" transform="translate(326,370)"/>
<path d="M0 0 C0.639375 0.804375 1.27875 1.60875 1.9375 2.4375 C3.40603502 4.2750504 3.40603502 4.2750504 5 6 C5.04063832 7.66617115 5.042721 9.33388095 5 11 C0 4.40909091 0 4.40909091 0 0 Z " fill="#181818" transform="translate(222,262)"/>
<path d="M0 0 C-1 3 -1 3 -3.375 4.75 C-6 6 -6 6 -9 5 C-7.87926138 4.16094435 -6.75325453 3.32892169 -5.625 2.5 C-4.99851562 2.0359375 -4.37203125 1.571875 -3.7265625 1.09375 C-2 0 -2 0 0 0 Z " fill="#161616" transform="translate(261,218)"/>
<path d="M0 0 C3.87132028 0.57352893 6.08172796 2.48704352 9 5 C5 5 5 5 2.25 2.5 C1.5075 1.675 0.765 0.85 0 0 Z " fill="#1D1D1D" transform="translate(249,397)"/>
<path d="M0 0 C0.66 0 1.32 0 2 0 C1.46930939 3.82097239 0.50298434 6.06171403 -2 9 C-3 6 -3 6 -1.5625 2.8125 C-1.046875 1.884375 -0.53125 0.95625 0 0 Z " fill="#181818" transform="translate(412,347)"/>
<path d="M0 0 C0.6875 1.625 0.6875 1.625 1 4 C-0.4375 7.25 -0.4375 7.25 -2 10 C-2.66 10 -3.32 10 -4 10 C-3.29445932 6.33118845 -1.72264494 3.29549466 0 0 Z " fill="#0D0D0D" transform="translate(371,310)"/>
<path d="M0 0 C4.42857143 5.14285714 4.42857143 5.14285714 5 9 C4.01 8.67 3.02 8.34 2 8 C0.3125 4.4375 0.3125 4.4375 -1 1 C-0.67 0.67 -0.34 0.34 0 0 Z " fill="#101010" transform="translate(229,275)"/>
<path d="M0 0 C0.66 0 1.32 0 2 0 C2.66 1.65 3.32 3.3 4 5 C3.34 5.66 2.68 6.32 2 7 C2 6.34 2 5.68 2 5 C0.68 4.67 -0.64 4.34 -2 4 C-1.34 2.68 -0.68 1.36 0 0 Z " fill="#292929" transform="translate(410,253)"/>
<path d="M0 0 C0.33 0.66 0.66 1.32 1 2 C-6.625 3.25 -6.625 3.25 -10 1 C-6.61981469 -0.04005702 -3.5219721 -0.08004482 0 0 Z " fill="#111111" transform="translate(299,205)"/>
<path d="M0 0 C-1 3 -1 3 -2.875 4.1875 C-5 5 -5 5 -8 5 C-8 4.34 -8 3.68 -8 3 C-2.25 0 -2.25 0 0 0 Z " fill="#1B1B1B" transform="translate(436,190)"/>
<path d="M0 0 C0.66 0.33 1.32 0.66 2 1 C1.1875 4.4375 1.1875 4.4375 0 8 C-0.99 8.33 -1.98 8.66 -3 9 C-2.01 6.03 -1.02 3.06 0 0 Z " fill="#121212" transform="translate(338,344)"/>
<path d="M0 0 C3.36720387 1.39332574 4.9859524 2.9789286 7 6 C4 6 4 6 1.8125 4.125 C0 2 0 2 0 0 Z " fill="#292929" transform="translate(214,255)"/>
<path d="M0 0 C0.66 0.33 1.32 0.66 2 1 C1.01 3.97 0.02 6.94 -1 10 C-1.66 8.68 -2.32 7.36 -3 6 C-1.625 2.75 -1.625 2.75 0 0 Z " fill="#1F1F1F" transform="translate(382,247)"/>
<path d="M0 0 C0 0.66 0 1.32 0 2 C-2.31 2.66 -4.62 3.32 -7 4 C-7.66 3.34 -8.32 2.68 -9 2 C-5.62902617 0.50178941 -3.79557881 0 0 0 Z " fill="#101010" transform="translate(285,208)"/>
<path d="M0 0 C0.66 0 1.32 0 2 0 C1.46930939 3.82097239 0.50298434 6.06171403 -2 9 C-1.125 2.25 -1.125 2.25 0 0 Z " fill="#090909" transform="translate(386,278)"/>
<path d="M0 0 C0.66 0.66 1.32 1.32 2 2 C1.01 3.98 0.02 5.96 -1 8 C-1.66 7.67 -2.32 7.34 -3 7 C-1.125 1.125 -1.125 1.125 0 0 Z " fill="#151515" transform="translate(403,244)"/>
<path d="M0 0 C-1 3 -1 3 -4.0625 4.6875 C-5.031875 5.120625 -6.00125 5.55375 -7 6 C-7.33 5.34 -7.66 4.68 -8 4 C-2.25 0 -2.25 0 0 0 Z " fill="#1B1B1B" transform="translate(254,214)"/>
</svg>
